<svg width="295" height="295" viewBox="0 0 295 295" fill="none" xmlns="http://www.w3.org/2000/svg">
<path d="M165.512 35.7109L129.235 99.1953C124.646 107.226 113.08 107.265 108.437 99.2646L86.6804 61.7686L103.979 51.7314L118.763 77.2109L148.147 25.7891L165.512 35.7109Z" fill="white"></path>
<path d="M253.418 106.979L180.3 107.304C171.05 107.345 165.234 97.3476 169.841 89.3271L191.435 51.7371L208.777 61.6997L194.103 87.2429L253.328 86.9791L253.418 106.979Z" fill="white"></path>
<path d="M60.2174 75.7111L97.0578 138.87C101.718 146.86 95.9686 156.897 86.7189 156.917L43.3679 157.01L43.3249 137.011L72.7829 136.947L42.9421 85.7889L60.2174 75.7111Z" fill="white"></path>
<path d="M234.783 218.299L197.942 155.14C193.282 147.15 199.032 137.114 208.281 137.094L251.632 137L251.675 157L222.217 157.064L252.058 208.222L234.783 218.299Z" fill="white"></path>
<path d="M130.147 259.289L166.425 195.805C171.014 187.774 182.58 187.735 187.222 195.735L208.979 233.231L191.68 243.269L176.896 217.789L147.512 269.211L130.147 259.289Z" fill="white"></path>
<path d="M42.7847 188L115.902 187.675C125.152 187.634 130.969 197.631 126.361 205.652L104.767 243.242L87.4255 233.279L102.099 207.736L42.8748 208L42.7847 188Z" fill="white"></path>
</svg>