<svg width="1012" height="359" viewBox="0 0 1012 359" fill="none" xmlns="http://www.w3.org/2000/svg">
<path d="M245.953 67.7109L209.676 131.195C205.087 139.226 193.52 139.265 188.878 131.265L167.121 93.7686L184.42 83.7314L199.204 109.211L228.588 57.7891L245.953 67.7109Z" fill="black"></path>
<path d="M333.859 138.979L260.741 139.304C251.491 139.345 245.674 129.348 250.282 121.327L271.876 83.7371L289.218 93.6997L274.544 119.243L333.769 118.979L333.859 138.979Z" fill="black"></path>
<path d="M140.658 107.711L177.499 170.87C182.159 178.86 176.409 188.897 167.16 188.917L123.809 189.01L123.766 169.011L153.224 168.947L123.383 117.789L140.658 107.711Z" fill="black"></path>
<path d="M315.224 250.299L278.383 187.14C273.723 179.15 279.472 169.114 288.722 169.094L332.073 169L332.116 189L302.658 189.064L332.499 240.222L315.224 250.299Z" fill="black"></path>
<path d="M210.588 291.289L246.865 227.805C251.454 219.774 263.021 219.735 267.663 227.735L289.42 265.231L272.121 275.269L257.337 249.789L227.953 301.211L210.588 291.289Z" fill="black"></path>
<path d="M123.226 220L196.343 219.675C205.593 219.634 211.41 229.631 206.802 237.652L185.208 275.242L167.866 265.279L182.54 239.736L123.316 240L123.226 220Z" fill="black"></path>
<path d="M868.92 251.027C859.544 251.027 851.038 248.884 843.403 244.597C835.902 240.177 829.942 234.083 825.522 226.314C821.102 218.411 818.891 209.236 818.891 198.788C818.891 188.34 821.102 179.232 825.522 171.463C830.076 163.56 836.103 157.466 843.604 153.18C851.239 148.759 859.812 146.549 869.322 146.549C878.832 146.549 887.337 148.759 894.838 153.18C902.473 157.466 908.434 163.56 912.72 171.463C917.14 179.232 919.35 188.34 919.35 198.788C919.35 209.236 917.14 218.411 912.72 226.314C908.3 234.083 902.272 240.177 894.637 244.597C887.003 248.884 878.43 251.027 868.92 251.027ZM868.92 234.953C874.278 234.953 879.167 233.614 883.587 230.935C888.141 228.256 891.825 224.305 894.637 219.081C897.45 213.723 898.857 206.959 898.857 198.788C898.857 190.617 897.45 183.853 894.637 178.495C891.959 173.137 888.342 169.186 883.788 166.641C879.368 163.962 874.546 162.623 869.322 162.623C864.098 162.623 859.209 163.962 854.655 166.641C850.101 169.186 846.417 173.137 843.604 178.495C840.791 183.853 839.385 190.617 839.385 198.788C839.385 206.959 840.791 213.723 843.604 219.081C846.417 224.305 850.034 228.256 854.454 230.935C859.008 233.614 863.83 234.953 868.92 234.953Z" fill="black"></path>
<path d="M751.523 248.616L716.965 148.96H738.061L764.984 233.748H765.989L793.113 148.96H813.807L779.048 248.616H751.523Z" fill="black"></path>
<path d="M654.928 251.027C647.026 251.027 640.395 249.687 635.037 247.008C629.814 244.195 625.929 240.445 623.384 235.757C620.839 231.069 619.567 225.979 619.567 220.487C619.567 213.924 621.241 208.298 624.59 203.61C628.072 198.922 633.028 195.305 639.458 192.76C646.021 190.215 653.857 188.943 662.965 188.943H689.285C689.285 182.915 688.348 177.959 686.472 174.075C684.731 170.057 682.119 167.11 678.637 165.235C675.154 163.226 670.935 162.221 665.979 162.221C659.817 162.221 654.46 163.761 649.905 166.842C645.485 169.789 642.806 174.477 641.869 180.906H621.777C622.581 173.539 624.925 167.378 628.809 162.422C632.827 157.332 638.051 153.447 644.481 150.769C650.91 147.956 658.076 146.549 665.979 146.549C675.489 146.549 683.459 148.224 689.888 151.572C696.451 154.921 701.34 159.676 704.555 165.837C707.77 171.865 709.377 179.031 709.377 187.336V248.616H690.692V231.939H689.888C688.013 235.154 685.803 237.967 683.258 240.378C680.713 242.655 677.967 244.597 675.02 246.205C672.207 247.812 669.06 249.017 665.577 249.821C662.228 250.625 658.679 251.027 654.928 251.027ZM659.75 234.752C664.438 234.752 668.524 233.882 672.006 232.14C675.623 230.399 678.637 228.055 681.048 225.108C683.593 222.027 685.468 218.612 686.673 214.861C688.013 211.111 688.75 207.227 688.883 203.208H664.974C659.081 203.208 654.326 203.878 650.709 205.217C647.226 206.557 644.682 208.432 643.074 210.843C641.467 213.254 640.663 216.067 640.663 219.282C640.663 222.362 641.4 225.108 642.873 227.519C644.481 229.796 646.691 231.605 649.504 232.944C652.45 234.15 655.866 234.752 659.75 234.752Z" fill="black"></path>
<path d="M561.265 251.027C551.487 251.027 542.847 248.884 535.346 244.597C527.845 240.177 521.952 234.083 517.665 226.314C513.379 218.545 511.236 209.437 511.236 198.989C511.236 188.541 513.312 179.433 517.464 171.664C521.751 163.761 527.644 157.6 535.145 153.18C542.78 148.759 551.553 146.549 561.465 146.549C571.377 146.549 579.883 148.759 586.982 153.18C594.081 157.466 599.573 163.159 603.457 170.258C607.476 177.357 609.485 185.259 609.485 193.966C609.485 195.305 609.485 196.779 609.485 198.386C609.485 199.993 609.351 201.668 609.083 203.409H525.903V189.345H589.393C588.991 180.772 586.178 174.142 580.954 169.454C575.731 164.632 569.167 162.221 561.265 162.221C555.907 162.221 550.884 163.426 546.196 165.837C541.642 168.248 537.958 171.865 535.145 176.687C532.332 181.509 530.926 187.604 530.926 194.971V200.596C530.926 207.963 532.332 214.192 535.145 219.282C537.958 224.238 541.642 227.988 546.196 230.533C550.884 233.078 555.84 234.35 561.064 234.35C567.493 234.35 572.784 232.944 576.936 230.131C581.222 227.184 584.37 223.233 586.379 218.277H606.672C604.797 224.572 601.783 230.198 597.631 235.154C593.478 239.976 588.321 243.861 582.16 246.807C576.132 249.62 569.167 251.027 561.265 251.027Z" fill="black"></path>
<path d="M423.232 248.616V107.973H443.324V232.743H507.618V248.616H423.232Z" fill="black"></path>
</svg>