<svg width="379" height="129" viewBox="0 0 379 129" fill="none" xmlns="http://www.w3.org/2000/svg">
<path d="M58.9846 72.5077C58.982 68.8866 59.8363 65.3129 61.4821 62.0601C63.1279 58.8073 65.5216 55.9616 68.48 53.7407C65.3776 47.3475 58.1242 43.6196 48.0825 43.6196H26.1025V92.75H37.8461V79.0649H48.6666L58.4634 92.75H70.6654C67.0937 90.6198 64.1453 87.6414 62.1007 84.0982C60.0561 80.5551 58.9834 76.565 58.9846 72.5077ZM47.4294 70.0123H37.8461V52.8846H47.4294C54.62 52.8846 58.2498 56.0418 58.2498 61.4515C58.2498 66.8612 54.62 70.0123 47.4294 70.0123Z" fill="black"></path>
<path d="M107.539 75.1611H75.5509C76.7298 80.1865 81.2096 83.3274 87.6544 83.3274C92.1342 83.3274 95.3566 82.071 98.2646 79.4076L104.814 86.1918C100.884 90.4885 94.9898 92.7499 87.3662 92.7499C72.7477 92.7499 63.2378 83.9555 63.2378 71.8695C63.2378 59.7835 72.9049 50.9891 85.7943 50.9891C98.2384 50.9891 107.801 58.9794 107.801 72.0203C107.774 72.8997 107.617 74.1812 107.539 75.1611ZM75.3937 68.3015H96.2015C95.3566 63.1882 91.3483 59.8589 85.8467 59.8589C80.3451 59.8589 76.2582 63.1002 75.3937 68.3015Z" fill="black"></path>
<path d="M170.263 71.5381C170.255 66.0423 172.127 60.6988 175.588 56.343C172.481 52.71 167.782 50.9891 162.22 50.9891C155.823 50.9891 150.294 53.5386 146.897 57.7198C143.896 53.2071 138.841 50.9891 132.917 50.9891C127.468 50.9891 122.729 52.8247 119.569 56.343V51.601H107.801V92.7499H120.122V72.099C120.122 64.7564 123.992 61.3146 129.442 61.3146C134.576 61.3146 137.498 64.374 137.498 71.0282V92.7499H149.82V72.099C149.82 64.7564 153.69 61.3146 159.219 61.3146C164.195 61.3146 167.275 64.374 167.275 71.0282V92.7499H179.596V90.7996C176.668 88.4556 174.313 85.5127 172.699 82.1824C171.086 78.852 170.254 75.2168 170.263 71.5381Z" fill="black"></path>
<path d="M216.485 75.1611H186.274C187.388 80.1865 191.619 83.3274 197.706 83.3274C201.936 83.3274 204.98 82.071 207.726 79.4076L213.912 86.1918C210.2 90.4885 204.633 92.7499 197.433 92.7499C183.627 92.7499 174.646 83.9555 174.646 71.8695C174.646 59.7835 183.775 50.9891 195.949 50.9891C207.701 50.9891 216.732 58.9794 216.732 72.0203C216.739 72.8997 216.559 74.1812 216.485 75.1611ZM186.126 68.3015H205.796C204.986 63.1882 201.194 59.8589 195.998 59.8589C190.802 59.8589 186.943 63.1002 186.126 68.3015Z" fill="black"></path>
<path d="M266.248 36.25V92.1471H253.658V87.4743C250.363 91.0166 245.546 92.75 239.463 92.75C226.619 92.75 216.733 84.5853 216.733 71.8734C216.733 59.1615 226.591 50.9968 239.463 50.9968C245.039 50.9968 249.771 52.5795 253.066 55.8956V36.25H266.248ZM253.32 71.9111C253.32 64.902 248.25 60.6814 241.744 60.6814C235.238 60.6814 230.084 64.902 230.084 71.9111C230.084 78.9202 235.153 83.1407 241.744 83.1407C248.335 83.1407 253.32 78.9202 253.32 71.9111Z" fill="black"></path>
<path d="M310.587 75.1717H280.353C281.467 80.1941 285.699 83.333 291.786 83.333C296.018 83.333 299.062 82.0774 301.808 79.4156L307.995 86.1958C304.283 90.4899 298.715 92.7499 291.514 92.7499C277.706 92.7499 268.723 83.9608 268.723 71.8821C268.723 59.8033 277.879 50.9891 290.023 50.9891C301.777 50.9891 310.81 58.9746 310.81 72.0076C310.81 72.9116 310.667 74.1923 310.587 75.1717ZM280.223 68.3162H299.897C299.08 63.2059 295.294 59.8786 290.097 59.8786C284.9 59.8786 281.04 63.1181 280.223 68.3162Z" fill="black"></path>
<path d="M338.043 50.9891V62.0029C337.079 61.9264 336.338 61.85 335.448 61.85C329.074 61.85 324.849 65.4448 324.849 73.3227V92.7499H313.286V51.601H324.336V57.0186C327.147 53.0542 331.891 50.9891 338.043 50.9891Z" fill="black"></path>
<path d="M343.068 50.9891H350.349C350.684 50.9891 351.015 51.0525 351.324 51.1759C351.634 51.2992 351.915 51.4799 352.151 51.7078C352.388 51.9357 352.576 52.2062 352.704 52.5039C352.832 52.8016 352.898 53.1207 352.898 53.443V90.296C352.898 90.9469 352.629 91.571 352.151 92.0312C351.673 92.4914 351.025 92.7499 350.349 92.7499H343.068C342.392 92.7499 341.743 92.4914 341.265 92.0312C340.788 91.571 340.519 90.9469 340.519 90.296V53.443C340.519 53.1207 340.585 52.8016 340.713 52.5039C340.841 52.2062 341.029 51.9357 341.265 51.7078C341.502 51.4799 341.783 51.2992 342.092 51.1759C342.401 51.0525 342.733 50.9891 343.068 50.9891Z" fill="black"></path>
<path d="M340.519 42.3948C340.519 38.9375 343.008 36.25 346.708 36.25C350.409 36.25 352.898 38.7905 352.898 42.1778C352.898 45.8521 350.409 48.5326 346.708 48.5326C343.008 48.5326 340.519 45.8521 340.519 42.3948Z" fill="black"></path>
</svg>