<svg width="323" height="174" viewBox="0 0 323 174" fill="none" xmlns="http://www.w3.org/2000/svg">
<path fill-rule="evenodd" clip-rule="evenodd" d="M70.9811 47.0852C55.143 65.6851 39.9572 88.7506 39.8049 105.991C39.7456 112.478 41.8166 118.141 46.7839 122.43C53.9328 128.608 61.8094 130.786 69.6475 130.799C81.1017 130.815 92.4758 126.194 101.381 122.631C116.38 116.633 282.171 44.636 282.171 44.636C283.771 43.8346 283.471 42.836 281.469 43.3345C280.661 43.5365 100.979 92.2305 100.979 92.2305C97.5756 93.1931 94.0587 93.6966 90.5219 93.7276C76.713 93.8094 64.4253 86.1444 64.5247 69.9921C64.5631 63.6719 66.4978 56.0502 70.9811 47.0852Z" fill="black"></path>
</svg>