<svg width="372" height="152" viewBox="0 0 372 152" fill="none" xmlns="http://www.w3.org/2000/svg">
<g clip-path="url(#clip0_1_301)">
<path d="M71.689 84.9514H89.0884L98.757 36.8588H81.3553L71.689 84.9514ZM82.314 31.1227H99.7862L102.658 16.7337H85.1922L82.314 31.1227ZM95.8559 98.4842H113.258L123.889 46.5251H136.94L138.864 36.8588H126.064L126.549 34.6841C127.273 30.5853 128.724 25.9833 135.248 25.9833C139.119 25.9833 142.742 26.2247 146.365 27.9166L148.3 17.7675C144.263 16.3429 140.014 15.607 135.733 15.5906C121.715 15.5906 112.051 23.8087 108.423 36.8588H102.382L100.449 46.5251H106.49L95.8559 98.4842Z" fill="#060606"></path>
<path d="M150.959 85.9196C171.501 85.9196 185.76 67.3087 185.76 52.084C185.76 40.7257 175.367 35.8914 165.218 35.8914C142.736 35.8914 130.417 55.9619 130.417 69.727C130.417 81.0853 141.051 85.9196 150.959 85.9196ZM206.065 85.9196C226.607 85.9196 240.866 67.3087 240.866 52.084C240.866 40.7257 230.232 35.8914 220.081 35.8914C197.606 35.8914 185.282 55.9505 185.282 69.727C185.282 81.0853 196.158 85.9196 206.065 85.9196ZM269.141 84.9518H286.299L300.313 16.5679H282.913L278.803 36.8683L271.553 36.1442C254.636 36.1442 239.17 57.8929 239.17 73.3613C239.17 79.6438 243.269 85.9287 250.287 85.9287C260.194 85.9287 267.203 81.0944 270.098 76.2601H271.063L269.141 84.9518ZM215.486 120.962C201.98 132.152 184.633 137.617 167.152 136.187C144.192 134.736 127.758 117.093 124.859 98.4846H125.824C131.141 110.098 143.95 120.962 159.66 122.652C175.6 124.585 194.702 117.337 205.093 107.427L193.493 98.4846H228.536L220.794 135.704L215.718 121.203L215.486 120.962Z" fill="#060606"></path>
</g>
<defs>
<clipPath id="clip0_1_301">
<rect width="228.622" height="120.819" fill="white" transform="translate(71.689 15.5906)"></rect>
</clipPath>
</defs>
</svg>