<svg width="358" height="122" viewBox="0 0 358 122" fill="none" xmlns="http://www.w3.org/2000/svg">
<path d="M93.541 80.4614V34.4726H111.7C114.791 34.3762 117.857 35.0581 120.615 36.4557C123.001 37.6979 124.971 39.6118 126.281 41.9611C127.606 44.4493 128.273 47.2354 128.217 50.054C128.274 52.8744 127.594 55.6608 126.243 58.1375C124.93 60.473 122.96 62.3711 120.577 63.5957C117.766 64.9645 114.666 65.6351 111.54 65.5505H99.9436V57.7786H109.944C111.543 57.8445 113.135 57.5204 114.581 56.8343C115.749 56.232 116.705 55.2861 117.319 54.124C117.916 52.8719 118.225 51.5024 118.225 50.1154C118.225 48.7284 117.916 47.3589 117.319 46.1067C116.704 44.9479 115.739 44.0127 114.562 43.4343C113.087 42.7432 111.467 42.4193 109.84 42.4899H103.23V80.5182L93.541 80.4614Z" fill="black"></path>
<path d="M143.193 81.1128C141.172 81.15 139.166 80.7539 137.31 79.9513C135.644 79.2275 134.226 78.0327 133.23 76.514C132.332 74.9196 131.824 73.1348 131.748 71.3062C131.673 69.4775 132.032 67.6571 132.796 65.9941C133.461 64.7272 134.436 63.6488 135.629 62.8589C136.901 62.0395 138.298 61.4336 139.765 61.0647C141.368 60.6518 143 60.3645 144.647 60.2053C146.659 59.9976 148.274 59.7993 149.501 59.6104C150.44 59.5169 151.35 59.2308 152.174 58.7699C152.444 58.588 152.662 58.3394 152.808 58.0482C152.953 57.757 153.021 57.4331 153.005 57.1079V56.9662C153.041 56.3525 152.94 55.7385 152.71 55.1685C152.48 54.5985 152.126 54.0868 151.673 53.6705C150.599 52.833 149.256 52.4166 147.896 52.4996C146.437 52.4247 144.993 52.8221 143.779 53.6328C142.81 54.3279 142.1 55.3241 141.758 56.4658L132.919 55.7481C133.318 53.7406 134.218 51.8663 135.535 50.2993C136.928 48.7206 138.684 47.5051 140.653 46.7581C142.971 45.8796 145.436 45.4532 147.915 45.5021C149.79 45.4924 151.659 45.7209 153.477 46.1821C155.161 46.594 156.76 47.3005 158.199 48.269C159.557 49.1992 160.671 50.443 161.447 51.8952C162.279 53.5314 162.691 55.3485 162.646 57.1834V80.4517H153.543V75.6546H153.279C152.722 76.7317 151.966 77.6932 151.05 78.4876C150.068 79.3273 148.933 79.9687 147.707 80.3762C146.255 80.8752 144.729 81.1243 143.193 81.1128V81.1128ZM145.932 74.5025C147.242 74.5376 148.54 74.2454 149.709 73.6526C150.742 73.1315 151.618 72.3462 152.249 71.3767C152.875 70.4059 153.203 69.2736 153.194 68.1188V64.4359C152.824 64.6644 152.423 64.8394 152.004 64.9554C151.433 65.1312 150.853 65.2762 150.266 65.3897C149.624 65.5219 148.972 65.6258 148.377 65.7202L146.63 65.9846C145.619 66.1176 144.628 66.381 143.684 66.7684C142.899 67.0606 142.207 67.5599 141.682 68.2132C141.195 68.8661 140.945 69.6656 140.974 70.4797C140.941 71.0579 141.055 71.6352 141.306 72.1571C141.557 72.6791 141.937 73.1287 142.409 73.4638C143.486 74.1795 144.763 74.5334 146.054 74.4742L145.932 74.5025Z" fill="black"></path>
<path d="M174.752 93.3992C173.61 93.3995 172.47 93.3047 171.343 93.1159C170.449 92.9732 169.572 92.7358 168.728 92.4076L170.89 85.2686C171.874 85.5893 172.897 85.7766 173.931 85.8257C174.76 85.878 175.583 85.6556 176.273 85.1929C177.036 84.6162 177.603 83.8183 177.897 82.9077L178.464 81.444L166.112 45.9749H176.169L183.317 71.3113H183.676L190.872 45.9749H200.995L187.548 84.1542C186.954 85.913 186.07 87.56 184.932 89.027C183.811 90.4164 182.373 91.5173 180.739 92.2377C178.846 93.0351 176.807 93.4306 174.752 93.3992V93.3992Z" fill="black"></path>
<path d="M205.434 34.4728H217.427L230.1 65.3713H230.639L243.302 34.4728H255.295V80.4617H245.852V50.5265H245.474L233.566 80.2351H227.145L215.246 50.4131H214.859V80.4617H205.416L205.434 34.4728Z" fill="black"></path>
<path d="M278.827 81.1319C275.641 81.2181 272.487 80.4728 269.677 78.9694C267.148 77.5438 265.097 75.4014 263.784 72.8123C262.422 69.8688 261.716 66.6643 261.716 63.421C261.716 60.1776 262.422 56.973 263.784 54.0296C265.094 51.427 267.123 49.2544 269.629 47.7686C272.312 46.2267 275.365 45.4463 278.459 45.5117C280.629 45.496 282.784 45.867 284.824 46.6071C286.763 47.3074 288.526 48.4224 289.989 49.8745C291.527 51.4224 292.707 53.2888 293.445 55.3422C294.312 57.8136 294.731 60.4199 294.682 63.0385V65.6638H265.55V59.7239H285.674C285.682 58.4443 285.356 57.1847 284.729 56.0693C284.145 55.0222 283.286 54.1539 282.246 53.5574C281.125 52.9261 279.858 52.6004 278.572 52.6131C277.221 52.5916 275.889 52.9376 274.719 53.6141C273.628 54.2606 272.726 55.1821 272.103 56.2865C271.477 57.4262 271.152 58.7069 271.159 60.0072V65.6732C271.116 67.2038 271.439 68.7224 272.103 70.1021C272.716 71.293 273.665 72.278 274.833 72.9351C276.104 73.6332 277.538 73.9818 278.988 73.9455C279.981 73.9549 280.969 73.8051 281.915 73.5016C282.761 73.2248 283.535 72.7636 284.182 72.1513C284.812 71.5327 285.296 70.7808 285.598 69.951L294.446 70.5459C294.022 72.6046 293.075 74.5198 291.698 76.108C290.226 77.7328 288.396 78.9935 286.354 79.7909C283.952 80.7087 281.398 81.1637 278.827 81.1319V81.1319Z" fill="black"></path>
<path d="M316.619 81.1325C313.433 81.2165 310.28 80.4713 307.469 78.97C304.94 77.5444 302.889 75.402 301.576 72.8129C300.213 69.8696 299.507 66.665 299.507 63.4216C299.507 60.1781 300.213 56.9734 301.576 54.0301C302.882 51.4305 304.903 49.2582 307.402 47.7692C310.088 46.2262 313.145 45.4488 316.241 45.5217C318.412 45.5014 320.568 45.8725 322.606 46.6172C324.543 47.3228 326.304 48.4372 327.772 49.8845C329.306 51.4318 330.48 53.2988 331.209 55.3522C332.086 57.8179 332.505 60.4229 332.446 63.0391V65.6644H303.323V59.7245H323.447C323.46 58.4443 323.134 57.1834 322.502 56.0699C321.918 55.0228 321.059 54.1545 320.019 53.558C318.852 52.9401 317.549 52.6251 316.229 52.6416C314.909 52.658 313.615 53.0056 312.464 53.6524C311.368 54.2958 310.463 55.2179 309.839 56.3249C309.213 57.4646 308.888 58.7452 308.895 60.0455V65.7115C308.856 67.2416 309.179 68.7593 309.839 70.1405C310.45 71.3269 311.391 72.3109 312.549 72.9735C313.82 73.6737 315.254 74.0224 316.704 73.9839C317.694 73.9926 318.679 73.8428 319.622 73.5401C320.468 73.2576 321.241 72.7934 321.889 72.1802C322.529 71.5702 323.021 70.8205 323.324 69.9894L332.172 70.5843C331.757 72.6461 330.809 74.5635 329.424 76.1464C327.958 77.7757 326.126 79.0346 324.079 79.8199C321.698 80.7255 319.167 81.1709 316.619 81.1325Z" fill="black"></path>
<path d="M73.7573 34.52V46.7963H58.7708C57.7417 46.8035 56.7321 46.5152 55.8622 45.9654L48.8459 41.5742C48.2685 41.2096 47.6279 40.9565 46.9572 40.8282C46.8105 40.7963 46.6758 40.7236 46.5688 40.6182C46.4619 40.5129 46.3869 40.3794 46.3528 40.2332C45.7207 37.333 44.1207 34.7341 41.816 32.8635C39.5112 30.9929 36.6387 29.9619 33.6704 29.94V28.5991H45.2101C46.1354 28.6035 47.0447 28.8405 47.8543 29.2885L56.0417 33.8024C56.852 34.2474 57.7612 34.4812 58.6857 34.4823L73.7573 34.52Z" fill="black"></path>
<path d="M73.7574 51.4236V63.7471H58.7709C57.7424 63.7502 56.7339 63.4621 55.8623 62.9161L48.846 58.5344C47.9673 57.9786 46.9488 57.6838 45.9091 57.6845H33.6328V56.1358C36.449 56.1125 39.1824 55.1809 41.4265 53.4795C43.6707 51.7781 45.3057 49.3977 46.0885 46.6925C46.1477 46.4998 46.2789 46.3375 46.4547 46.239C46.6306 46.1405 46.8376 46.1135 47.0328 46.1637L47.1745 46.2203L55.3712 50.7531C56.1822 51.1953 57.0917 51.4258 58.0154 51.4236H73.7574Z" fill="black"></path>
<path d="M48.8455 75.2302L55.8524 79.6212C56.7239 80.1686 57.7318 80.4599 58.761 80.4617H73.757V68.1854H58.0433C57.1188 68.1844 56.2094 67.9506 55.3991 67.5055L47.2117 62.9916C46.4014 62.5465 45.4921 62.3127 44.5677 62.3117H25.5488V74.4463H45.8708C46.917 74.4175 47.9494 74.6896 48.8455 75.2302V75.2302Z" fill="black"></path>
</svg>