<svg width="358" height="142" viewBox="0 0 358 142" fill="none" xmlns="http://www.w3.org/2000/svg">
<g clip-path="url(#clip0_1_180)">
<path d="M177.497 65.6137C176.583 66.5967 175.478 67.3822 174.249 67.9217C173.021 68.4613 171.694 68.7436 170.352 68.7511C163.586 68.7511 158.124 63.2512 158.124 55.6345C158.038 53.9645 158.288 52.2942 158.861 50.7232C159.434 49.1522 160.317 47.7126 161.458 46.4903C162.6 45.2681 163.975 44.2881 165.503 43.6088C167.031 42.9296 168.68 42.565 170.352 42.5368C172.578 42.5504 174.757 43.179 176.648 44.353C178.539 45.527 180.069 47.2008 181.069 49.1896L176.287 50.5315C175.61 49.5889 174.719 48.8201 173.687 48.2879C172.656 47.7557 171.513 47.4753 170.352 47.4697C165.949 47.4697 163 50.8528 163 55.6345C163 60.4162 166.251 63.856 170.56 63.856C172.021 63.9465 173.473 63.5779 174.713 62.8018C175.954 62.0256 176.92 60.8809 177.478 59.5279V58.4506H170.976V54.3871H181.522V68.2597H177.497V65.6137ZM201.5 68.2597L196.812 59.6602H193.032V68.2786H188.289V43.0282H196.548C202.331 43.0282 205.809 46.3735 205.809 51.4576C205.904 52.9771 205.529 54.489 204.734 55.7875C203.939 57.0861 202.764 58.1084 201.367 58.7152L206.754 68.2597H201.5ZM192.976 55.1809H197.153C197.658 55.2143 198.164 55.1394 198.638 54.9613C199.112 54.7831 199.542 54.5058 199.9 54.1479C200.258 53.79 200.535 53.3598 200.713 52.886C200.891 52.4123 200.966 51.9059 200.933 51.4009C200.966 50.8958 200.891 50.3895 200.713 49.9157C200.535 49.442 200.258 49.0117 199.9 48.6538C199.542 48.2959 199.112 48.0186 198.638 47.8405C198.164 47.6623 197.658 47.5875 197.153 47.6209H192.976V55.1809ZM222.687 42.5368C224.361 42.5626 226.013 42.9252 227.544 43.6032C229.075 44.2811 230.454 45.2603 231.599 46.4826C232.744 47.7049 233.631 49.1451 234.207 50.7174C234.783 52.2898 235.037 53.962 234.953 55.6345C235.037 57.3078 234.783 58.981 234.207 60.5544C233.631 62.1278 232.744 63.5692 231.6 64.793C230.456 66.0167 229.077 66.9978 227.546 67.6778C226.014 68.3577 224.362 68.7227 222.687 68.7511C215.901 68.7511 210.458 63.2512 210.458 55.6345C210.458 48.0178 215.901 42.5368 222.687 42.5368ZM222.687 63.8182C227.034 63.8182 230.076 60.4729 230.076 55.6345C230.076 50.7961 227.034 47.4697 222.687 47.4697C218.34 47.4697 215.334 50.7772 215.334 55.6345C215.334 60.4918 218.377 63.8182 222.687 63.8182ZM260.694 43.0282V57.2977C260.694 64.7254 256.725 68.7511 250.507 68.7511C244.289 68.7511 240.339 64.7254 240.339 57.2977V43.0282H245.026V57.2221C245.026 61.9093 246.916 64.0828 250.507 64.0828C254.098 64.0828 256.026 61.9093 256.026 57.2221V43.0282H260.694ZM276.06 43.0282C281.73 43.0282 285.151 46.2034 285.151 51.4576C285.151 56.7118 281.711 59.9437 276.06 59.9437H272.28V68.2597H267.593V43.0282H276.06ZM275.947 55.2565C278.725 55.2565 280.313 53.8012 280.313 51.4765C280.313 49.1518 278.649 47.6965 275.947 47.6965H272.318V55.2565H275.947ZM169.823 84.4759C169.652 83.3578 169.077 82.3415 168.206 81.6201C167.334 80.8988 166.229 80.5228 165.098 80.5636C162.622 80.5636 160.865 81.8299 160.865 83.8522C160.865 85.8745 163.473 86.7628 165.987 87.6322C168.5 88.5016 172.224 89.749 172.224 93.6613C172.224 97.0633 169.464 99.5392 165.306 99.5392C163.584 99.6266 161.891 99.0659 160.562 97.9674C159.233 96.869 158.363 95.3124 158.124 93.6046L160.241 92.9998C160.375 94.2544 160.984 95.4101 161.944 96.2293C162.903 97.0484 164.141 97.4686 165.401 97.4035C168.198 97.4035 169.899 95.8159 169.899 93.6235C169.899 90.694 166.629 90.0892 163.964 89.182C161.81 88.4638 158.634 87.4243 158.634 83.9467C158.634 80.8093 161.413 78.4657 165.174 78.4657C166.758 78.4027 168.312 78.9124 169.551 79.9016C170.79 80.8909 171.632 82.2933 171.921 83.8522L169.823 84.4759ZM185.624 78.5602C186.964 78.5812 188.286 78.8721 189.511 79.4154C190.737 79.9586 191.84 80.7431 192.755 81.7221C193.671 82.7011 194.38 83.8545 194.84 85.1134C195.3 86.3724 195.501 87.7111 195.433 89.0497C195.535 90.3992 195.358 91.7555 194.912 93.0334C194.467 94.3114 193.761 95.4834 192.841 96.4761C191.921 97.4688 190.806 98.2608 189.566 98.8024C188.325 99.3441 186.987 99.6236 185.633 99.6236C184.28 99.6236 182.941 99.3441 181.7 98.8024C180.46 98.2608 179.345 97.4688 178.425 96.4761C177.505 95.4834 176.8 94.3114 176.354 93.0334C175.908 91.7555 175.731 90.3992 175.833 89.0497C175.762 87.712 175.961 86.3737 176.419 85.1149C176.877 83.856 177.584 82.7024 178.498 81.7231C179.412 80.7439 180.514 79.959 181.739 79.4155C182.963 78.8721 184.284 78.5811 185.624 78.5602ZM185.624 97.2334C186.671 97.2369 187.708 97.0228 188.668 96.6045C189.629 96.1861 190.492 95.5728 191.203 94.8033C191.913 94.0339 192.457 93.1251 192.798 92.1346C193.139 91.1442 193.27 90.0936 193.184 89.0497C193.184 87.0446 192.387 85.1217 190.969 83.7039C189.552 82.2862 187.629 81.4897 185.624 81.4897C183.619 81.4897 181.696 82.2862 180.278 83.7039C178.86 85.1217 178.064 87.0446 178.064 89.0497C177.988 90.0876 178.128 91.1299 178.474 92.1113C178.82 93.0928 179.365 93.9922 180.074 94.7534C180.784 95.5145 181.643 96.1209 182.598 96.5346C183.553 96.9484 184.583 97.1605 185.624 97.1578V97.2334ZM202.69 81.1117V88.0102H210.761V90.1459H202.69V99.1423H200.479V78.8815H212.802V81.1117H202.69ZM231.021 78.8815V81.1117H224.69V99.0667H222.498V81.1117H216.185V78.8815H231.021ZM259.353 78.8815L252.945 99.0667H251.055L247.918 88.4638C247.086 85.6099 246.897 84.5137 246.879 84.5137C246.86 84.5137 246.69 85.6288 245.858 88.4638L242.739 99.0667H240.849L234.461 78.8815H236.748L240.906 92.5273C241.416 94.2472 241.7 95.4568 241.719 95.4568C241.738 95.4568 241.946 94.2472 242.513 92.5273L245.858 81.6031H247.748L251.093 92.5273C251.66 94.2472 251.868 95.4568 251.906 95.4568C251.944 95.4568 252.208 94.2472 252.719 92.5273L256.971 78.8815H259.353ZM273.981 93.7936H264.531L262.433 99.0667H260.052L268.254 78.8815H270.277L278.479 99.0667H276.098L273.981 93.7936ZM273.15 91.6768L270.163 84.1168C269.748 83.0773 269.294 81.6598 269.256 81.6598C269.218 81.6598 268.765 83.0773 268.368 84.1168L265.382 91.6768H273.15ZM293.505 99.0667L289.252 91.5067C288.925 91.5263 288.597 91.5263 288.27 91.5067H284.754V99.0667H282.486V78.8815H288.156C292.579 78.8815 295.225 81.3574 295.225 85.2508C295.315 86.5186 294.976 87.7798 294.263 88.8321C293.55 89.8843 292.504 90.6665 291.294 91.0531L295.867 99.0667H293.505ZM288.496 89.4277C289.076 89.483 289.66 89.4166 290.212 89.2328C290.765 89.049 291.272 88.7518 291.703 88.3603C292.134 87.9688 292.478 87.4917 292.713 86.9594C292.949 86.4272 293.07 85.8516 293.07 85.2697C293.07 84.6877 292.949 84.1121 292.713 83.5799C292.478 83.0477 292.134 82.5705 291.703 82.179C291.272 81.7875 290.765 81.4903 290.212 81.3065C289.66 81.1227 289.076 81.0564 288.496 81.1117H284.716V89.4277H288.496ZM313.539 96.8365V99.0667H300.781V78.8815H313.369V81.1117H302.993V87.3298H311.328V89.4277H302.993V96.8365H313.539ZM119.247 86.1202C116.578 90.9881 112.668 95.0628 107.914 97.9302C103.16 100.798 97.7319 102.355 92.181 102.446C86.6301 102.536 81.1543 101.155 76.3098 98.4434C71.4654 95.7319 67.4251 91.7863 64.5994 87.0076C61.7737 82.2289 60.2633 76.7874 60.2216 71.2359C60.18 65.6844 61.6087 60.2208 64.3624 55.4003C67.1162 50.5798 71.0969 46.5741 75.9001 43.7903C80.7034 41.0064 86.1579 39.5436 91.7095 39.5506C94.3102 39.5473 96.9009 39.8711 99.4207 40.5145C62.6035 31.1401 46.1038 59.1877 45.8392 59.6602C42.8631 71.6978 44.7383 84.4228 51.0602 95.0903C57.3822 105.758 67.6442 113.512 79.6324 116.681C80.0671 116.681 102.615 115.888 119.247 86.1202Z" fill="black"></path>
<path d="M88.6109 63.6288C86.6661 64.4007 85.1075 65.9137 84.2781 67.8348C83.4487 69.7558 83.4164 71.9277 84.1883 73.8726C84.9603 75.8175 86.4732 77.3761 88.3943 78.2055C90.3154 79.0349 92.4873 79.0671 94.4321 78.2952L131.287 63.6855C131.287 63.6855 120.098 51.1359 88.6109 63.6288Z" fill="black"></path>
<path d="M45.8398 59.66C47.3335 53.615 50.0072 47.9249 53.7073 42.9167C57.4075 37.9086 62.061 33.6811 67.4004 30.4775C72.7398 27.2738 78.6598 25.1571 84.82 24.2491C90.9802 23.3411 97.2592 23.6596 103.296 25.1864C105.328 25.7002 107.074 27.0004 108.148 28.801C109.222 30.6015 109.536 32.755 109.023 34.7876C108.509 36.8202 107.209 38.5655 105.408 39.6394C103.607 40.7134 101.454 41.0281 99.4213 40.5143C62.3017 31.0643 45.8398 59.66 45.8398 59.66ZM88.6105 63.629L125.447 49.0193C127.37 48.3458 129.479 48.4415 131.333 49.2864C133.187 50.1312 134.644 51.6598 135.397 53.5529C136.151 55.446 136.144 57.5572 135.378 59.4454C134.612 61.3336 133.146 62.8528 131.287 63.6857C131.287 63.6857 120.098 51.1361 88.6105 63.629ZM91.7101 118.25C87.6335 118.252 83.5739 117.724 79.633 116.681C79.633 116.681 102.464 116.171 119.323 86.1767C119.778 85.1953 120.429 84.3176 121.236 83.5982C122.044 82.8787 122.991 82.3328 124.018 81.9941C125.045 81.6555 126.131 81.5313 127.208 81.6294C128.285 81.7275 129.331 82.0458 130.28 82.5644C131.229 83.0831 132.062 83.7911 132.726 84.6446C133.39 85.4981 133.872 86.479 134.142 87.5264C134.412 88.5738 134.464 89.6654 134.294 90.7337C134.125 91.8019 133.738 92.824 133.158 93.7367C129.081 101.163 123.083 107.357 115.791 111.67C108.499 115.982 100.182 118.255 91.7101 118.25Z" fill="black"></path>
</g>
<defs>
<clipPath id="clip0_1_180">
<rect width="269.079" height="94.5" fill="white" transform="translate(44.4604 23.75)"></rect>
</clipPath>
</defs>
</svg>