<svg width="423" height="130" viewBox="0 0 423 130" fill="none" xmlns="http://www.w3.org/2000/svg">
<g clip-path="url(#clip0_1_178)">
<path d="M342.111 42.555C343.634 42.555 344.869 41.3203 344.869 39.7972C344.869 38.2741 343.634 37.0394 342.111 37.0394C340.588 37.0394 339.353 38.2741 339.353 39.7972C339.353 41.3203 340.588 42.555 342.111 42.555Z" fill="black"></path>
<path d="M347.78 92.501C349.303 92.501 350.538 91.2663 350.538 89.7432C350.538 88.2202 349.303 86.9855 347.78 86.9855C346.257 86.9855 345.022 88.2202 345.022 89.7432C345.022 91.2663 346.257 92.501 347.78 92.501Z" fill="black"></path>
<path d="M355.9 42.555C357.423 42.555 358.658 41.3203 358.658 39.7972C358.658 38.2741 357.423 37.0394 355.9 37.0394C354.377 37.0394 353.142 38.2741 353.142 39.7972C353.142 41.3203 354.377 42.555 355.9 42.555Z" fill="black"></path>
<path d="M355.9 50.6751C357.423 50.6751 358.658 49.4404 358.658 47.9173C358.658 46.3942 357.423 45.1595 355.9 45.1595C354.377 45.1595 353.142 46.3942 353.142 47.9173C353.142 49.4404 354.377 50.6751 355.9 50.6751Z" fill="black"></path>
<path d="M355.9 84.0745C357.423 84.0745 358.658 82.8398 358.658 81.3167C358.658 79.7937 357.423 78.559 355.9 78.559C354.377 78.559 353.142 79.7937 353.142 81.3167C353.142 82.8398 354.377 84.0745 355.9 84.0745Z" fill="black"></path>
<path d="M355.9 92.501C357.423 92.501 358.658 91.2663 358.658 89.7432C358.658 88.2202 357.423 86.9855 355.9 86.9855C354.377 86.9855 353.142 88.2202 353.142 89.7432C353.142 91.2663 354.377 92.501 355.9 92.501Z" fill="black"></path>
<path d="M364.173 42.555C365.696 42.555 366.931 41.3203 366.931 39.7972C366.931 38.2741 365.696 37.0394 364.173 37.0394C362.65 37.0394 361.415 38.2741 361.415 39.7972C361.415 41.3203 362.65 42.555 364.173 42.555Z" fill="black"></path>
<path d="M364.173 50.6751C365.696 50.6751 366.931 49.4404 366.931 47.9173C366.931 46.3942 365.696 45.1595 364.173 45.1595C362.65 45.1595 361.415 46.3942 361.415 47.9173C361.415 49.4404 362.65 50.6751 364.173 50.6751Z" fill="black"></path>
<path d="M364.173 59.1016C365.696 59.1016 366.931 57.8669 366.931 56.3438C366.931 54.8208 365.696 53.5861 364.173 53.5861C362.65 53.5861 361.415 54.8208 361.415 56.3438C361.415 57.8669 362.65 59.1016 364.173 59.1016Z" fill="black"></path>
<path d="M364.173 75.8012C365.696 75.8012 366.931 74.5665 366.931 73.0434C366.931 71.5203 365.696 70.2856 364.173 70.2856C362.65 70.2856 361.415 71.5203 361.415 73.0434C361.415 74.5665 362.65 75.8012 364.173 75.8012Z" fill="black"></path>
<path d="M364.173 84.0745C365.696 84.0745 366.931 82.8398 366.931 81.3167C366.931 79.7937 365.696 78.559 364.173 78.559C362.65 78.559 361.415 79.7937 361.415 81.3167C361.415 82.8398 362.65 84.0745 364.173 84.0745Z" fill="black"></path>
<path d="M364.173 92.501C365.696 92.501 366.931 91.2663 366.931 89.7432C366.931 88.2202 365.696 86.9855 364.173 86.9855C362.65 86.9855 361.415 88.2202 361.415 89.7432C361.415 91.2663 362.65 92.501 364.173 92.501Z" fill="black"></path>
<path d="M372.293 42.555C373.816 42.555 375.051 41.3203 375.051 39.7972C375.051 38.2741 373.816 37.0394 372.293 37.0394C370.77 37.0394 369.536 38.2741 369.536 39.7972C369.536 41.3203 370.77 42.555 372.293 42.555Z" fill="black"></path>
<path d="M372.293 50.6751C373.816 50.6751 375.051 49.4404 375.051 47.9173C375.051 46.3942 373.816 45.1595 372.293 45.1595C370.77 45.1595 369.536 46.3942 369.536 47.9173C369.536 49.4404 370.77 50.6751 372.293 50.6751Z" fill="black"></path>
<path d="M372.293 59.1016C373.816 59.1016 375.051 57.8669 375.051 56.3438C375.051 54.8208 373.816 53.5861 372.293 53.5861C370.77 53.5861 369.536 54.8208 369.536 56.3438C369.536 57.8669 370.77 59.1016 372.293 59.1016Z" fill="black"></path>
<path d="M372.293 67.3747C373.816 67.3747 375.051 66.14 375.051 64.6169C375.051 63.0938 373.816 61.8591 372.293 61.8591C370.77 61.8591 369.536 63.0938 369.536 64.6169C369.536 66.14 370.77 67.3747 372.293 67.3747Z" fill="black"></path>
<path d="M372.293 75.8012C373.816 75.8012 375.051 74.5665 375.051 73.0434C375.051 71.5203 373.816 70.2856 372.293 70.2856C370.77 70.2856 369.536 71.5203 369.536 73.0434C369.536 74.5665 370.77 75.8012 372.293 75.8012Z" fill="black"></path>
<path d="M372.293 84.0745C373.816 84.0745 375.051 82.8398 375.051 81.3167C375.051 79.7937 373.816 78.559 372.293 78.559C370.77 78.559 369.536 79.7937 369.536 81.3167C369.536 82.8398 370.77 84.0745 372.293 84.0745Z" fill="black"></path>
<path d="M372.293 92.501C373.816 92.501 375.051 91.2663 375.051 89.7432C375.051 88.2202 373.816 86.9855 372.293 86.9855C370.77 86.9855 369.536 88.2202 369.536 89.7432C369.536 91.2663 370.77 92.501 372.293 92.501Z" fill="black"></path>
<path d="M380.413 42.555C381.936 42.555 383.171 41.3203 383.171 39.7972C383.171 38.2741 381.936 37.0394 380.413 37.0394C378.89 37.0394 377.655 38.2741 377.655 39.7972C377.655 41.3203 378.89 42.555 380.413 42.555Z" fill="black"></path>
<path d="M380.413 50.6751C381.936 50.6751 383.171 49.4404 383.171 47.9173C383.171 46.3942 381.936 45.1595 380.413 45.1595C378.89 45.1595 377.655 46.3942 377.655 47.9173C377.655 49.4404 378.89 50.6751 380.413 50.6751Z" fill="black"></path>
<path d="M380.413 59.1016C381.936 59.1016 383.171 57.8669 383.171 56.3438C383.171 54.8208 381.936 53.5861 380.413 53.5861C378.89 53.5861 377.655 54.8208 377.655 56.3438C377.655 57.8669 378.89 59.1016 380.413 59.1016Z" fill="black"></path>
<path d="M380.413 67.3747C381.936 67.3747 383.171 66.14 383.171 64.6169C383.171 63.0938 381.936 61.8591 380.413 61.8591C378.89 61.8591 377.655 63.0938 377.655 64.6169C377.655 66.14 378.89 67.3747 380.413 67.3747Z" fill="black"></path>
<path d="M380.413 75.8012C381.936 75.8012 383.171 74.5665 383.171 73.0434C383.171 71.5203 381.936 70.2856 380.413 70.2856C378.89 70.2856 377.655 71.5203 377.655 73.0434C377.655 74.5665 378.89 75.8012 380.413 75.8012Z" fill="black"></path>
<path d="M380.413 84.0745C381.936 84.0745 383.171 82.8398 383.171 81.3167C383.171 79.7937 381.936 78.559 380.413 78.559C378.89 78.559 377.655 79.7937 377.655 81.3167C377.655 82.8398 378.89 84.0745 380.413 84.0745Z" fill="black"></path>
<path d="M380.413 92.501C381.936 92.501 383.171 91.2663 383.171 89.7432C383.171 88.2202 381.936 86.9855 380.413 86.9855C378.89 86.9855 377.655 88.2202 377.655 89.7432C377.655 91.2663 378.89 92.501 380.413 92.501Z" fill="black"></path>
<path d="M388.686 50.6751C390.21 50.6751 391.444 49.4404 391.444 47.9173C391.444 46.3942 390.21 45.1595 388.686 45.1595C387.163 45.1595 385.929 46.3942 385.929 47.9173C385.929 49.4404 387.163 50.6751 388.686 50.6751Z" fill="black"></path>
<path d="M388.686 59.1016C390.21 59.1016 391.444 57.8669 391.444 56.3438C391.444 54.8208 390.21 53.5861 388.686 53.5861C387.163 53.5861 385.929 54.8208 385.929 56.3438C385.929 57.8669 387.163 59.1016 388.686 59.1016Z" fill="black"></path>
<path d="M388.686 67.3747C390.21 67.3747 391.444 66.14 391.444 64.6169C391.444 63.0938 390.21 61.8591 388.686 61.8591C387.163 61.8591 385.929 63.0938 385.929 64.6169C385.929 66.14 387.163 67.3747 388.686 67.3747Z" fill="black"></path>
<path d="M388.686 75.8012C390.21 75.8012 391.444 74.5665 391.444 73.0434C391.444 71.5203 390.21 70.2856 388.686 70.2856C387.163 70.2856 385.929 71.5203 385.929 73.0434C385.929 74.5665 387.163 75.8012 388.686 75.8012Z" fill="black"></path>
<path d="M388.686 84.0745C390.21 84.0745 391.444 82.8398 391.444 81.3167C391.444 79.7937 390.21 78.559 388.686 78.559C387.163 78.559 385.929 79.7937 385.929 81.3167C385.929 82.8398 387.163 84.0745 388.686 84.0745Z" fill="black"></path>
<path d="M397.113 59.1016C398.636 59.1016 399.871 57.8669 399.871 56.3438C399.871 54.8208 398.636 53.5861 397.113 53.5861C395.59 53.5861 394.355 54.8208 394.355 56.3438C394.355 57.8669 395.59 59.1016 397.113 59.1016Z" fill="black"></path>
<path d="M397.113 67.3747C398.636 67.3747 399.871 66.14 399.871 64.6169C399.871 63.0938 398.636 61.8591 397.113 61.8591C395.59 61.8591 394.355 63.0938 394.355 64.6169C394.355 66.14 395.59 67.3747 397.113 67.3747Z" fill="black"></path>
<path d="M397.113 75.8012C398.636 75.8012 399.871 74.5665 399.871 73.0434C399.871 71.5203 398.636 70.2856 397.113 70.2856C395.59 70.2856 394.355 71.5203 394.355 73.0434C394.355 74.5665 395.59 75.8012 397.113 75.8012Z" fill="black"></path>
<path d="M405.386 67.3747C406.909 67.3747 408.144 66.14 408.144 64.6169C408.144 63.0938 406.909 61.8591 405.386 61.8591C403.863 61.8591 402.628 63.0938 402.628 64.6169C402.628 66.14 403.863 67.3747 405.386 67.3747Z" fill="black"></path>
<path d="M224.906 80.3976H223.68L221.842 80.7041C220.31 81.0105 218.318 81.0105 216.786 80.7041C215.867 80.3976 215.56 79.4784 215.56 77.9463V58.3355H225.366C226.285 58.3355 227.204 57.4163 227.204 56.497V49.6026C227.204 49.3983 227.102 49.1941 226.898 48.9898V48.6834L226.591 48.3769C226.285 48.0705 225.672 47.7641 225.366 47.7641H215.56V38.878C215.56 38.878 215.56 38.5716 215.254 38.5716L214.948 38.2651H212.19L204.989 42.7082C204.376 43.0146 204.07 43.6275 204.07 44.2403V48.6834H194.571C190.434 48.3769 186.451 49.909 183.233 52.5136C182.62 53.1264 182.008 53.7393 181.701 54.3521V50.8283C181.701 49.6026 180.782 48.3769 179.556 48.3769H172.355C171.13 48.3769 170.21 49.2962 170.21 50.8283V89.8966C170.21 91.1223 171.13 92.348 172.355 92.348H179.25C180.475 92.348 181.395 91.4287 181.395 89.8966V68.4473C181.395 66.9152 181.701 65.6896 182.314 64.3107C184.765 59.2548 191.813 58.9484 194.264 58.9484H203.763V80.3976C203.15 86.0664 207.287 91.4287 212.956 92.348H217.092C218.012 92.348 219.237 92.3479 220.31 92.0415C222.148 92.0415 224.14 91.7351 225.672 91.1223C226.591 90.8159 227.204 89.8966 227.204 88.9774V82.6958C227.204 81.0105 226.285 80.3976 224.906 80.3976Z" fill="black"></path>
<path d="M72.0038 59.2548L68.9396 58.6419C62.658 57.7227 57.6021 56.8034 57.6021 53.2796C57.6021 49.7558 61.7388 47.6109 68.0203 47.6109C74.3019 47.6109 78.1321 48.8365 82.8816 51.4411C83.8009 52.0539 85.0265 51.7475 85.6394 50.8283C86.5586 49.6026 87.1715 48.3769 88.0907 46.998C88.3971 46.3852 88.7036 45.7724 89.3164 45.1595C89.6228 44.5467 89.9292 43.9338 89.6228 43.321C89.3164 42.7082 89.01 42.0953 88.3971 42.0953C82.1156 38.8779 74.9147 37.0394 67.5607 37.3459C61.892 37.0394 56.2232 38.5715 51.3205 41.6357C46.8775 44.3935 44.1197 49.143 44.1197 54.5053C44.1197 63.3914 50.0949 68.2941 62.3516 70.2858L66.1818 70.8986C73.6891 71.8179 77.8257 73.0436 77.8257 76.5674C77.8257 80.0912 73.3826 82.2361 67.1011 82.2361C60.8195 82.2361 55.4572 80.704 50.4013 77.4866C49.482 76.8738 47.9499 76.8738 47.1839 77.7931C46.2646 78.7123 43.0472 83.4618 42.7408 84.0746C42.128 84.9939 42.7408 86.2196 43.6601 86.8324C50.5545 90.969 58.8278 92.8075 66.9479 92.8075C72.923 93.114 78.5918 91.5819 83.6477 88.3645C88.3971 85.6067 91.1549 80.5508 91.1549 75.1885C90.8485 66.3024 84.2605 61.2465 72.0038 59.2548Z" fill="black"></path>
<path d="M259.838 59.2547L256.621 58.6418C250.339 57.7226 245.283 56.8033 245.283 53.2795C245.283 49.7557 249.42 47.6108 255.701 47.6108C261.983 47.6108 265.813 48.8364 270.563 51.441C271.482 52.0538 272.708 51.7474 273.32 50.8282C274.24 49.6025 274.853 48.3768 275.772 46.9979C276.078 46.3851 276.385 45.7723 276.997 45.1594C277.304 44.5466 277.61 43.9338 277.304 43.3209C276.997 42.7081 276.691 42.0952 276.078 42.0952C269.797 38.8779 262.596 37.0393 255.242 37.3458C249.573 37.0393 243.904 38.5714 238.848 41.7888C234.405 43.9338 231.648 48.9897 231.648 54.0456C231.648 62.9317 237.623 67.8344 249.879 69.8261L253.71 70.4389C261.217 71.3582 265.354 72.5839 265.354 76.1077C265.354 79.6315 260.91 81.7764 254.629 81.7764C248.347 81.7764 242.985 80.2443 237.929 77.0269C237.01 76.4141 235.478 76.4141 234.712 77.3333C233.792 78.2526 230.575 83.0021 230.269 83.6149C229.656 84.5342 230.269 85.7598 231.188 86.3727C238.082 90.5093 246.356 92.3478 254.169 92.3478C260.144 92.6543 265.813 91.1222 270.869 87.9048C275.619 85.147 278.376 80.0911 278.376 74.7288C278.836 66.3023 272.554 61.2464 259.838 59.2547Z" fill="black"></path>
<path d="M311.469 48.3769C309.018 47.764 306.413 47.4576 303.962 47.4576C292.318 46.5384 282.206 55.2713 281.287 67.2216V69.6729C281.287 83.4618 290.48 92.3479 304.881 92.3479C319.283 92.3479 316.832 90.5094 321.581 86.9856C322.194 86.6791 322.5 85.7599 322.5 85.147C322.5 84.5342 322.194 83.9214 321.581 83.3085C318.823 80.5508 317.751 79.7847 317.751 79.4783C317.138 78.8655 316.525 78.8655 315.912 78.8655C315.3 78.8655 314.993 79.1719 314.38 79.4783L314.074 79.7847C311.316 81.3168 308.099 81.9297 304.881 82.2361C298.293 82.2361 293.544 79.0187 292.931 74.116H323.42C324.645 74.116 325.565 73.1967 325.565 71.9711V70.1326C325.871 65.0767 324.339 60.0208 321.734 56.0373C319.436 52.0539 315.912 49.6025 311.469 48.3769ZM314.687 64.617H292.931C294.463 59.8675 299.213 56.8034 304.268 57.4162C310.244 57.4162 314.074 60.0208 314.687 64.617Z" fill="black"></path>
<path d="M116.128 80.3976H115.209L113.064 80.704C111.532 81.0104 109.54 81.0104 108.008 80.704C107.088 80.3976 106.782 79.4784 106.782 77.9463V58.3355H116.281C117.507 58.3355 118.426 57.4162 118.426 55.8842V50.3686C118.426 49.143 117.507 47.9173 116.281 47.9173H107.088V39.4908C107.088 38.2651 106.169 37.0394 104.944 37.0394C103.718 37.0394 104.024 37.0394 103.718 37.3458L96.5171 41.7889C95.9042 42.0953 95.5978 43.0146 95.5978 43.6274V79.4784C94.985 85.1471 99.1216 90.5094 104.79 91.4287H108.927C109.846 91.4287 111.072 91.4287 112.144 91.1222C113.983 91.1222 115.975 90.8158 117.507 90.203C118.426 89.8966 119.039 88.9773 119.039 88.0581V82.3893C118.273 81.3169 117.353 80.3976 116.128 80.3976Z" fill="black"></path>
<path d="M161.784 47.9173H154.89C153.664 47.9173 152.745 48.8366 152.745 50.3687V50.6751C149.527 48.5302 146.157 47.4577 142.327 47.4577H142.02C136.351 47.1513 130.683 49.2962 126.24 52.82C121.797 57.2631 119.345 63.5447 119.652 69.8262C119.345 76.1078 121.797 82.083 125.933 86.526C130.223 90.5095 135.585 92.348 141.561 92.348H142.173C146.004 92.348 149.681 91.1223 152.592 88.8242V89.437C152.592 90.6627 153.511 91.8883 154.737 91.8883H161.631C162.857 91.8883 163.776 90.9691 163.776 89.437V50.5219C164.236 48.9898 163.01 47.9173 161.784 47.9173ZM131.449 74.1161L131.755 73.8097V68.1409V65.996C132.368 63.8511 133.287 61.8594 134.973 60.6337L135.585 60.0209L135.892 59.7144C136.198 59.408 136.505 59.408 136.505 59.1016C136.811 58.7952 137.118 58.7952 137.424 58.4888C138.037 58.1823 138.65 57.8759 139.569 57.8759C140.488 57.8759 140.182 57.5695 140.488 57.5695H142.939C146.77 57.2631 150.14 59.1016 152.438 62.0126V76.4142C150.294 79.172 146.77 81.1637 142.939 80.8573C139.722 80.8573 136.964 79.938 134.513 77.6399L134.207 77.3335V76.8739L133.747 76.5674L133.441 76.261L133.134 75.9546C132.828 75.3418 132.215 74.7289 132.215 74.1161C132.215 73.5033 132.215 73.8097 131.908 73.5033L131.449 74.1161Z" fill="black"></path>
<path d="M21.7509 92.501C25.5585 92.501 28.6453 89.4142 28.6453 85.6066C28.6453 81.7989 25.5585 78.7122 21.7509 78.7122C17.9432 78.7122 14.8564 81.7989 14.8564 85.6066C14.8564 89.4142 17.9432 92.501 21.7509 92.501Z" fill="black"></path>
</g>
<defs>
<clipPath id="clip0_1_178">
<rect width="393.901" height="74" fill="white" transform="translate(14.5498 28)"></rect>
</clipPath>
</defs>
</svg>