<svg width="423" height="120" viewBox="0 0 423 120" fill="none" xmlns="http://www.w3.org/2000/svg">
<path d="M43.972 54.829C34.2307 64.9125 41.8709 73.1576 61.0352 73.4521L59.2127 76.731C34.7559 76.4684 24.4177 67.0454 36.1009 55.5453C44.6325 47.1331 64.2106 38.307 81.624 35.8398L80.1039 38.6174C65.7705 41.3154 51.1188 47.4435 43.972 54.829Z" fill="black"></path>
<path d="M33.6257 55.458C21.0671 67.8177 32.0499 78.0047 58.3133 78.2991L55.7267 82.9231C54.7876 82.9231 53.8644 82.9231 52.9253 82.9231C22.9772 82.931 11.5407 69.68 25.4841 55.275C36.6341 43.7191 61.8867 34.0892 83.2395 32.8795L82.0378 35.084C62.8178 37.4398 42.7861 46.425 33.6257 55.458Z" fill="black"></path>
<path d="M14.7798 55.4104C28.1025 41.8728 57.979 31.4948 84.5686 30.5L83.6295 32.0917C60.6451 33.2457 35.0185 42.9631 23.2875 55.092C8.62784 70.2292 20.4941 84.4751 51.9782 84.4751C52.9731 84.4751 53.8883 84.4751 54.8672 84.4194L52.1135 89.29C48.556 89.5288 36.7216 90.1894 25.4364 86.6956C6.79736 80.9176 2.32464 68.0008 14.7559 55.4024" fill="black"></path>
<path d="M66.0412 76.5954C64.3062 76.675 62.42 76.7307 61.1387 76.7546L62.8736 73.4757C64.1311 73.4757 65.9059 73.4199 67.2747 73.3722L66.0412 76.5954Z" fill="black"></path>
<path d="M61.6084 88.5097C59.4038 88.7246 56.682 88.9554 54.8276 89.1146L57.2391 84.3713C58.8547 84.2996 61.282 84.1643 63.2558 84.0291L61.6084 88.5097Z" fill="black"></path>
<path d="M63.8287 82.6203C62.2609 82.7237 60.2951 82.8272 58.0508 82.9068L60.3588 78.3465C62.2688 78.3465 64.0516 78.243 65.4921 78.1635L63.8287 82.6203Z" fill="black"></path>
<path d="M166.837 87.9443H153.92C149.097 87.9443 145.826 86.7187 143.908 84.3471C141.982 81.9754 141.536 78.3861 142.523 73.5711L148.333 46.1857C149.551 40.4555 151.469 36.6274 153.912 34.6298C156.363 32.6322 160.565 31.7408 166.216 31.7408H177.382L176.005 38.0997H167.911C165.388 38.0997 163.629 38.6409 162.404 39.7074C161.178 40.7738 160.414 42.6918 159.881 45.3739L158.814 50.2684H172.264L170.665 57.7813H157.199L154.135 72.3057C153.45 75.6722 153.45 78.0439 154.294 79.5003C155.137 80.9567 156.968 81.6411 159.722 81.6411H168.213L166.837 87.9443Z" fill="black"></path>
<path d="M205.444 87.9442H194.126L203.613 43.4478C203.915 41.7606 203.764 40.5589 203.072 39.6993C202.387 38.8398 201.011 38.4021 199.093 38.4021H197.103L186.55 87.9522H175.241L187.163 31.7328H205.977C209.574 31.7328 212.169 32.7276 213.697 34.7173C215.225 36.7069 215.758 39.4606 214.994 43.0579L205.444 87.9442Z" fill="black"></path>
<path d="M254.604 38.0758H243.9L233.347 87.9442H222.038L232.591 38.0758H222.109L223.406 31.7328H255.901L254.604 38.0758Z" fill="black"></path>
<path d="M280.533 87.9443H269.128L275.551 57.7256H266.605L260.183 87.9443H248.866L257.66 46.4881C258.726 41.5219 260.883 37.6938 264.083 35.1232C267.282 32.5526 271.595 31.1439 276.792 31.1439C282.3 31.1439 286.04 32.3695 288.03 34.8128C290.02 37.3357 290.402 41.1717 289.327 46.5119L280.533 87.9443ZM277.166 50.2365L278.464 44.1244C278.997 41.8164 278.997 40.1451 278.464 39.1582C277.93 38.1634 277.007 37.7018 275.408 37.7018C273.649 37.7018 272.344 38.243 271.508 39.1582C270.672 40.0734 269.98 41.7527 269.518 44.1244L268.221 50.2365H277.166Z" fill="black"></path>
<path d="M325.928 72.417C324.774 77.9959 322.561 82.1344 319.505 84.8085C316.449 87.4826 312.168 88.8514 306.963 88.8514C301.917 88.8514 298.407 87.4746 296.258 84.6493C294.117 81.824 293.735 77.8367 294.881 72.409L303.525 31.7247H314.842L306.278 72.1782C305.594 75.2422 305.443 77.3751 305.745 78.6804C306.047 79.9776 307.042 80.5904 308.721 80.5904C309.43 80.6143 310.122 80.4631 310.751 80.1447C311.38 79.8264 311.913 79.3489 312.303 78.7599C313.218 77.606 313.982 75.3935 314.675 72.1862L323.238 31.7327H334.555L325.928 72.417Z" fill="black"></path>
<path d="M413.011 59.9697C410.56 71.3664 407.576 79.0384 403.994 82.9859C402.267 84.88 400.158 86.3921 397.803 87.4029C395.447 88.4136 392.9 88.915 390.337 88.8673C384.83 88.8673 381.09 86.8697 379.1 82.9699C377.11 79.0702 377.365 71.3504 379.784 59.9537C382.228 48.3979 385.284 40.7497 388.801 36.842C390.56 34.9718 392.701 33.4994 395.073 32.5046C397.444 31.5177 399.999 31.0402 402.562 31.1039C408.141 31.1039 411.961 32.8389 413.951 36.3008C415.94 39.7708 415.63 47.6975 413.035 59.9378L413.011 59.9697ZM401.312 59.9697C402.482 54.8205 403.35 49.6155 403.915 44.3708C404.305 40.7736 403.23 38.9351 400.859 38.9351C398.487 38.9351 396.736 40.7656 395.431 44.4425C393.799 49.536 392.478 54.717 391.452 59.9697C389.844 67.4826 388.929 72.8944 388.778 76.1813C388.626 79.4602 389.693 81.0042 391.985 81.0042C394.277 81.0042 396.115 79.2692 397.341 75.5685C398.559 71.9792 399.856 66.7743 401.312 59.9697Z" fill="black"></path>
<path d="M133.506 87.9443H120.51C115.775 87.9443 112.424 86.7187 110.498 84.3471C108.572 81.9754 108.126 78.3861 109.201 73.5711L115.01 46.1857C116.236 40.4555 118.075 36.6274 120.589 34.6298C123.112 32.6322 127.163 31.7408 132.901 31.7408H143.988L142.603 38.0997H134.509C132.066 38.0997 130.227 38.6409 129.081 39.7074C127.935 40.7738 127.02 42.6918 126.479 45.3739L125.412 50.2684L123.884 57.7813L120.749 72.3057C120.064 75.6722 120.136 78.0439 120.9 79.5003C121.664 80.9567 123.574 81.6411 126.407 81.6411H134.811L133.506 87.9443Z" fill="black"></path>
<path d="M362.554 46.7983C363.318 43.3283 363.397 40.9885 362.936 39.7629C362.474 38.5452 361.256 37.9245 359.267 37.9245H356.282L352.613 55.2583H355.9C356.688 55.2821 357.476 55.123 358.192 54.7887C358.909 54.4544 359.537 53.961 360.031 53.3402C361.018 52.1146 361.861 49.9021 362.554 46.7664V46.7983ZM359.418 66.3287C359.72 64.8802 359.49 63.8058 358.877 63.1134C358.264 62.4289 357.269 61.9594 355.892 61.9594H351.157L345.65 87.9601H334.333L346.262 31.7247H363.541C368.276 31.7247 371.491 32.7912 373.17 35.0116C374.85 37.2321 375.311 40.4473 374.324 44.8723C373.64 48.2388 372.414 50.9925 370.584 53.0537C368.769 55.1548 366.382 56.6749 363.708 57.415C366.302 57.7175 368.212 58.7123 369.358 60.3995C370.504 62.0788 370.743 64.148 370.202 66.5913L365.61 87.9362H354.834L359.418 66.3287Z" fill="black"></path>
</svg>